#N canvas 421 23 949 855 10;
#N canvas 421 23 949 855 vco 0;
#X obj 126 129 hsl 128 15 0 127 0 0 empty empty Note -2 -8 0 10 -257985
-1 -1 3500 1;
#X floatatom 122 148 3 0 127 0 - - -;
#X floatatom 122 178 12 0 20000 2 frequency - -;
#X obj 324 88 mtof;
#X obj 320 234 phasor~;
#N canvas 0 22 450 278 (subpatch) 0;
#X array wave 50 float 5;
#A 0 -0.0334517 -0.0211796 -0.00890964 0.00335824 0.0156239 0.0278876
0.0401491 0.0524086 0.0646659 0.0769211 0.0891743 0.101425 0.113674
0.125921 0.138166 0.150408 0.162649 0.174887 0.187123 0.199358 0.21159
0.22382 0.236048 0.248274 0.260497 0.272719 0.284939 0.297156 0.309372
0.321585 0.333796 0.346005 0.358213 0.370417 0.38262 0.394821 0.40702
0.419217 0.431411 0.443604 0.455794 0.467982 0.480168 0.492352 0.504534
0.516714 0.528892 0.541068 0.553241 0.565413;
#X coords 0 1 49 -1 100 70 1 0 0;
#X restore 117 210 graph;
#X obj 398 224 tgl 15 0 empty empty empty 17 7 0 10 -262144 -1 -1 0
1;
#X obj 398 244 metro 100;
#X obj 398 265 tabwrite~ wave;
#X obj 320 255 *~ 2;
#X obj 320 276 -~ 1;
#X obj 325 407 outlet~;
#X obj 164 344 outlet;
#X obj 319 185 sig~;
#X obj 322 209 +~;
#X obj 404 104 inlet~;
#X obj 624 136 r note;
#X obj 437 323 list trim;
#X obj 437 301 r fromGUI;
#X obj 437 345 route /note;
#X connect 0 0 1 0;
#X connect 1 0 3 0;
#X connect 2 0 12 0;
#X connect 2 0 13 0;
#X connect 3 0 2 0;
#X connect 4 0 9 0;
#X connect 6 0 7 0;
#X connect 7 0 8 0;
#X connect 9 0 10 0;
#X connect 10 0 8 0;
#X connect 10 0 11 0;
#X connect 13 0 14 0;
#X connect 14 0 4 0;
#X connect 15 0 14 1;
#X connect 16 0 0 0;
#X connect 17 0 19 0;
#X connect 18 0 17 0;
#X connect 19 0 0 0;
#X coords 0 -1 1 1 200 200 1 100 100;
#X restore 150 111 pd vco;
#N canvas 421 23 949 855 vcf 0;
#X obj 406 27 inlet;
#X obj 574 33 inlet~;
#X obj 558 408 vcf~;
#X obj 406 94 -;
#X obj 115 130 vsl 15 128 0.1 0.4 0 0 empty empty cutoff 0 -9 0 10
-261682 -1 -1 0 1;
#X obj 390 207 *;
#X obj 403 141 t b f;
#X obj 431 311 +;
#X obj 470 265 t b f;
#X obj 620 470 dac~;
#X obj 171 129 vsl 15 128 0.2 8 0 0 empty empty Q 0 -9 0 10 -204786
-1 -1 11900 1;
#X obj 131 54 loadbang;
#X obj 633 114 list trim;
#X obj 633 92 r fromGUI;
#X obj 633 136 route /cutoff /reso;
#X obj 406 53 swap 10000;
#X connect 0 0 15 0;
#X connect 1 0 2 0;
#X connect 2 0 9 0;
#X connect 2 0 9 1;
#X connect 3 0 6 0;
#X connect 4 0 5 0;
#X connect 4 0 8 0;
#X connect 5 0 7 0;
#X connect 6 0 5 0;
#X connect 6 1 5 1;
#X connect 7 0 2 1;
#X connect 8 0 7 0;
#X connect 8 1 7 1;
#X connect 10 0 2 2;
#X connect 11 0 4 0;
#X connect 11 0 10 0;
#X connect 12 0 14 0;
#X connect 13 0 12 0;
#X connect 14 0 4 0;
#X connect 14 1 10 0;
#X connect 15 0 3 0;
#X connect 15 0 7 0;
#X connect 15 1 3 1;
#X coords 0 -1 1 1 100 200 1 100 100;
#X restore 245 341 pd vcf;
#X obj 507 125 loadbang;
#X msg 508 148 \; \; pd dsp 1 \;;
#N canvas 44 23 1146 855 fm 0;
#X obj 113 132 vsl 15 128 0 20 0 0 empty empty Rate 0 -9 0 10 -257985
-1 -1 0 1;
#X obj 148 132 vsl 15 128 0 1 0 0 empty empty Amount 0 -9 0 10 -260097
-1 -1 0 1;
#X obj 80 22 inlet;
#X obj 255 354 *;
#X obj 342 231 t b f;
#X obj 94 335 osc~;
#X obj 151 446 *~;
#X obj 149 487 outlet~;
#X obj 437 323 list trim;
#X obj 437 301 r fromGUI;
#X obj 438 345 route /fmrate /fmroute;
#X connect 0 0 5 0;
#X connect 1 0 3 0;
#X connect 2 0 4 0;
#X connect 3 0 6 1;
#X connect 4 0 3 0;
#X connect 4 1 3 1;
#X connect 5 0 6 0;
#X connect 6 0 7 0;
#X connect 8 0 10 0;
#X connect 9 0 8 0;
#X connect 10 0 0 0;
#X connect 10 1 1 0;
#X coords 0 -1 1 1 85 200 1 100 100;
#X restore 140 342 pd fm;
#X obj 437 323 list trim;
#X obj 437 301 r fromGUI;
#X obj 437 345 route /note /fmrate /fmroute /cutoff /reso;
#X connect 0 0 1 0;
#X connect 0 0 4 0;
#X connect 0 1 1 1;
#X connect 2 0 3 0;
#X connect 4 0 0 0;
#X connect 5 0 7 0;
#X connect 6 0 5 0;
